# xmcd
#
# Track frame offsets: 
#        150
#        14235
#        34857
#        58888
#        79171
#        98265
#        113213
#        130779
#        152915
#        170495
#        193328
#        211337
#        230613
#        250316
#        270989
#        292697
#
# Disc length: 4175 seconds
#
# Revision: 5
# Processed by: cddbd v1.5.2PL0 Copyright (c) Steve Scherf et al.
# Submitted via: ExactAudioCopyFreeDBPlugin 1.0
#
DISCID=df104d10
DTITLE=R. Kelly - The R. In R&B Greatest Hits Collection: Vol. 1 CD1
DYEAR=2003
DGENRE=R&B
TTITLE0=Ignition - Remix
TTITLE1=Your Body's Callin'
TTITLE2=I Believe I Can Fly
TTITLE3=If I Could Turn Back The Hands Of Time
TTITLE4=Bump N' Grind
TTITLE5=She's Got That Vibe - R. Kelly and Public Announcement
TTITLE6=Thank God It's Friday
TTITLE7=Gotham City
TTITLE8=The World's Greatest
TTITLE9=I Wish
TTITLE10=Fiesta - Remix (Feat. Jay-Z and Boo and Gotti)
TTITLE11=Home Alone (Feat. Keith Murray)
TTITLE12=Down Low (Nobody Has To Know) (Feat. Ronald and Ernie Isley)
TTITLE13=When A Woman's Fed Up
TTITLE14=I'm Your Angel (Duet With Celine Dion)
TTITLE15=The Storm Is Over Now
EXTD=
EXTT0=
EXTT1=
EXTT2=
EXTT3=
EXTT4=
EXTT5=
EXTT6=
EXTT7=
EXTT8=
EXTT9=
EXTT10=
EXTT11=
EXTT12=
EXTT13=
EXTT14=
EXTT15=
PLAYORDER=
